<svg xmlns="http://www.w3.org/2000/svg" xmlns:xlink="http://www.w3.org/1999/xlink" width="500" zoomAndPan="magnify" viewBox="0 0 375 374.999991" height="500" preserveAspectRatio="xMidYMid meet" version="1.2"><defs><clipPath id="470616933b"><path d="M 237.148438 204 L 259.15625 204 L 259.15625 226.550781 L 237.148438 226.550781 Z M 237.148438 204 "/></clipPath><clipPath id="cf90165218"><path d="M 259.117188 211.957031 C 259.117188 219.058594 258.308594 220.859375 257.226562 222.207031 C 256.148438 223.558594 254.621094 224.816406 253 225.535156 C 251.472656 226.253906 249.492188 226.613281 247.695312 226.523438 C 245.988281 226.433594 244.097656 225.804688 242.570312 224.90625 C 241.128906 224.007812 239.691406 222.566406 238.792969 221.128906 C 237.894531 219.601562 237.265625 217.710938 237.175781 216.003906 C 237.082031 214.203125 237.445312 212.226562 238.164062 210.695312 C 238.882812 209.078125 240.140625 207.550781 241.492188 206.46875 C 242.839844 205.390625 244.636719 204.582031 246.347656 204.222656 C 248.144531 203.953125 250.125 204.042969 251.742188 204.582031 C 253.449219 205.03125 256.328125 207.371094 256.328125 207.371094 "/></clipPath><clipPath id="0149b6dc43"><path d="M 20 9.679688 L 346 9.679688 L 346 370 L 20 370 Z M 20 9.679688 "/></clipPath><clipPath id="2594780707"><path d="M 65.957031 72.859375 L 300 72.859375 L 300 307 L 65.957031 307 Z M 65.957031 72.859375 "/></clipPath><clipPath id="5c0a81485f"><path d="M 245 261 L 360 261 L 360 373 L 245 373 Z M 245 261 "/></clipPath><clipPath id="523e7ec1a3"><path d="M 245.136719 273.136719 L 256.097656 261.710938 L 359.664062 361.082031 L 348.703125 372.507812 Z M 245.136719 273.136719 "/></clipPath><clipPath id="f2af82617e"><path d="M 245 261 L 360 261 L 360 372 L 245 372 Z M 245 261 "/></clipPath><clipPath id="a296bb4226"><path d="M 245.136719 273.136719 L 256.632812 261.152344 L 359.683594 360.027344 L 348.1875 372.011719 Z M 245.136719 273.136719 "/></clipPath><clipPath id="301fcaf1fb"><path d="M 245.15625 273.15625 L 256.058594 261.789062 L 359.070312 360.628906 L 348.167969 371.992188 Z M 245.15625 273.15625 "/></clipPath><clipPath id="4209871659"><path d="M 279.550781 349.984375 L 325.246094 349.984375 L 325.246094 368.914062 L 279.550781 368.914062 Z M 279.550781 349.984375 "/></clipPath><clipPath id="cdae626735"><path d="M 285.550781 349.984375 L 319.242188 349.984375 C 322.554688 349.984375 325.242188 352.671875 325.242188 355.984375 L 325.242188 362.914062 C 325.242188 366.226562 322.554688 368.914062 319.242188 368.914062 L 285.550781 368.914062 C 282.238281 368.914062 279.550781 366.226562 279.550781 362.914062 L 279.550781 355.984375 C 279.550781 352.671875 282.238281 349.984375 285.550781 349.984375 Z M 285.550781 349.984375 "/></clipPath><clipPath id="4af925f9fc"><path d="M 252.292969 359.191406 L 375 359.191406 L 375 375 L 252.292969 375 Z M 252.292969 359.191406 "/></clipPath><clipPath id="ad7476751e"><path d="M 371.398438 373.222656 L 375 373.222656 L 375 375 L 371.398438 375 Z M 371.398438 373.222656 "/></clipPath><clipPath id="38ea83898b"><path d="M 404.960938 382.707031 C 384.371094 378.722656 374.738281 381.546875 372.582031 380.050781 C 371.75 379.550781 371.417969 378.554688 371.585938 377.726562 C 371.75 376.5625 374.574219 374.074219 375.734375 373.574219 C 376.730469 373.40625 377.894531 373.40625 378.226562 373.90625 C 378.558594 374.238281 378.558594 375.566406 378.226562 375.898438 C 377.894531 376.230469 375.734375 376.230469 375.402344 375.734375 C 375.238281 375.402344 376.730469 373.242188 377.230469 373.242188 C 377.5625 373.242188 378.558594 374.902344 378.390625 375.734375 C 378.058594 377.0625 373.578125 380.214844 372.582031 380.050781 C 371.917969 380.050781 371.417969 379.054688 371.417969 378.554688 C 371.417969 378.058594 371.917969 377.226562 372.746094 376.894531 C 375.402344 375.566406 384.703125 375.402344 390.347656 375.898438 C 395.664062 376.398438 403.964844 378.058594 405.957031 379.71875 C 406.789062 380.214844 407.285156 381.046875 407.121094 381.546875 C 406.953125 382.042969 404.960938 382.707031 404.960938 382.707031 "/></clipPath><clipPath id="19cc0e4dfb"><path d="M 321.648438 356.601562 L 330.101562 356.601562 L 330.101562 372.25 L 321.648438 372.25 Z M 321.648438 356.601562 "/></clipPath><clipPath id="5d296f487a"><path d="M 323.425781 371.082031 C 321.601562 363.445312 321.101562 358.296875 322.597656 357.132812 C 323.925781 355.972656 329.570312 357.300781 329.902344 358.296875 C 330.070312 358.792969 328.40625 360.621094 327.910156 360.621094 C 327.578125 360.457031 326.746094 358.296875 327.078125 357.964844 C 327.410156 357.632812 329.902344 358.128906 330.070312 358.628906 C 330.234375 358.960938 329.40625 360.289062 328.742188 360.621094 C 327.910156 360.953125 325.917969 359.125 325.417969 359.625 C 324.257812 360.621094 327.578125 369.089844 326.746094 370.917969 C 326.414062 371.746094 325.585938 372.246094 324.921875 372.246094 C 324.421875 372.246094 323.425781 371.082031 323.425781 371.082031 "/></clipPath><clipPath id="d0afa26bbe"><path d="M 325.054688 356.628906 L 330.480469 356.628906 L 330.480469 364.835938 L 325.054688 364.835938 Z M 325.054688 356.628906 "/></clipPath><clipPath id="e292e8a339"><path d="M 328.742188 358.460938 C 330.234375 363.609375 329.570312 364.773438 329.074219 364.605469 C 328.40625 364.605469 325.917969 359.792969 326.414062 358.960938 C 326.746094 358.296875 329.40625 358.296875 329.570312 358.792969 C 329.902344 359.125 329.074219 360.789062 328.574219 360.953125 C 327.910156 360.953125 326.25 359.457031 326.414062 359.125 C 326.582031 358.628906 328.90625 358.128906 329.570312 358.628906 C 330.402344 359.125 330.734375 362.613281 330.234375 363.609375 C 329.902344 364.273438 329.074219 364.773438 328.40625 364.773438 C 327.410156 364.605469 325.75 362.613281 325.417969 361.453125 C 324.921875 360.457031 325.085938 358.960938 325.417969 358.128906 C 325.75 357.464844 326.582031 356.636719 327.078125 356.636719 C 327.742188 356.636719 328.742188 358.460938 328.742188 358.460938 "/></clipPath><clipPath id="aec6942aa3"><path d="M 326.828125 356.921875 L 332.105469 356.921875 L 332.105469 366.230469 L 326.828125 366.230469 Z M 326.828125 356.921875 "/></clipPath><clipPath id="2b0aabbda9"><path d="M 327.410156 363.277344 C 327.078125 357.132812 329.738281 357.796875 329.738281 358.128906 C 329.738281 358.460938 327.578125 359.957031 327.078125 359.625 C 326.746094 359.457031 326.746094 357.132812 327.246094 356.96875 C 327.742188 356.636719 331.894531 359.957031 332.0625 361.617188 C 332.226562 363.113281 330.070312 365.769531 328.90625 366.101562 C 328.242188 366.433594 327.246094 365.769531 326.914062 365.4375 C 326.746094 364.9375 327.410156 363.277344 327.410156 363.277344 "/></clipPath><clipPath id="af07a409cd"><path d="M 329.046875 355.613281 L 335.195312 355.613281 L 335.195312 369 L 329.046875 369 Z M 329.046875 355.613281 "/></clipPath><clipPath id="d6f8b19e7f"><path d="M 332.394531 356.96875 C 335.546875 367.929688 334.71875 368.925781 334.21875 368.925781 C 333.722656 368.925781 332.394531 367.761719 332.394531 367.265625 C 332.394531 366.765625 334.71875 365.769531 335.050781 365.933594 C 335.382812 366.265625 334.882812 368.59375 334.386719 368.925781 C 334.054688 369.089844 333.222656 368.59375 332.558594 368.09375 C 331.230469 366.433594 328.90625 359.625 329.074219 357.632812 C 329.238281 356.636719 329.738281 355.804688 330.234375 355.640625 C 330.898438 355.640625 332.394531 356.96875 332.394531 356.96875 "/></clipPath><clipPath id="e28f0bd8f0"><path d="M 326.816406 356.140625 L 330.085938 356.140625 L 330.085938 358.847656 L 326.816406 358.847656 Z M 326.816406 356.140625 "/></clipPath><clipPath id="858c7c7afd"><path d="M 330.070312 357.132812 C 328.574219 359.292969 327.246094 358.960938 326.914062 358.460938 C 326.746094 357.964844 326.914062 356.636719 327.410156 356.304688 C 327.742188 355.972656 329.570312 356.46875 329.570312 356.46875 "/></clipPath><clipPath id="accc52501b"><path d="M 354.613281 351.621094 L 360.136719 351.621094 L 360.136719 375 L 354.613281 375 Z M 354.613281 351.621094 "/></clipPath><clipPath id="3f7641b4b8"><path d="M 358.964844 353.316406 C 357.96875 364.9375 360.957031 373.074219 359.792969 374.40625 C 359.128906 375.070312 357.136719 374.738281 356.804688 374.238281 C 356.472656 373.90625 357.136719 372.078125 357.636719 372.078125 C 358.132812 371.914062 359.960938 373.574219 359.792969 374.074219 C 359.792969 374.570312 357.636719 375.234375 357.304688 374.902344 C 356.804688 374.570312 357.136719 372.410156 357.46875 372.078125 C 357.96875 371.914062 359.792969 372.910156 359.960938 373.40625 C 360.125 373.90625 359.296875 374.902344 358.796875 375.070312 C 358.300781 375.234375 357.304688 375.070312 356.804688 374.238281 C 355.308594 372.578125 354.644531 364.441406 354.644531 360.621094 C 354.644531 357.464844 354.976562 353.8125 355.808594 352.484375 C 356.304688 351.984375 356.96875 351.652344 357.46875 351.652344 C 357.96875 351.820312 358.964844 353.316406 358.964844 353.316406 "/></clipPath><clipPath id="7d5d4c2a3c"><path d="M 355 353.261719 L 366.960938 353.261719 L 366.960938 372.527344 L 355 372.527344 Z M 355 353.261719 "/></clipPath><clipPath id="c91d1f7351"><path d="M 356.636719 363.113281 C 355.972656 353.8125 357.800781 353.8125 358.464844 354.476562 C 359.296875 355.308594 359.128906 359.625 358.464844 360.621094 C 357.96875 361.285156 356.96875 361.617188 356.304688 361.453125 C 355.808594 361.285156 355.476562 360.621094 355.308594 359.957031 C 355.144531 358.960938 355.308594 356.96875 355.808594 356.304688 C 356.304688 355.640625 357.800781 355.308594 358.300781 355.804688 C 359.128906 356.46875 359.628906 361.453125 358.964844 362.117188 C 358.632812 362.449219 357.304688 362.117188 356.96875 361.617188 C 356.304688 360.621094 357.46875 355.804688 358.464844 354.644531 C 359.128906 353.8125 360.457031 353.148438 360.957031 353.480469 C 361.953125 354.144531 361.621094 361.785156 360.457031 362.945312 C 359.628906 363.609375 357.96875 363.609375 357.304688 362.945312 C 356.140625 361.949219 355.808594 356.636719 356.472656 355.140625 C 356.96875 354.3125 358.300781 353.480469 358.964844 353.8125 C 360.457031 354.644531 358.464844 366.597656 360.625 368.59375 C 362.117188 370.085938 366.769531 368.59375 366.933594 369.257812 C 366.933594 369.589844 364.941406 371.25 364.445312 371.082031 C 364.109375 370.917969 364.109375 368.261719 364.609375 368.09375 C 365.109375 367.761719 366.601562 368.425781 366.769531 369.089844 C 367.101562 369.421875 366.769531 370.417969 366.269531 370.917969 C 365.273438 371.914062 361.289062 372.910156 359.792969 372.246094 C 358.632812 371.914062 357.96875 370.75 357.304688 369.257812 C 356.304688 366.265625 355.144531 356.304688 356.636719 354.808594 C 357.304688 354.144531 359.128906 354.144531 359.792969 354.808594 C 360.789062 355.804688 360.125 363.609375 359.128906 363.941406 C 358.796875 364.109375 357.46875 363.113281 357.136719 362.117188 C 356.636719 360.457031 357.636719 355.472656 358.632812 354.3125 C 359.296875 353.480469 360.625 353.148438 360.957031 353.480469 C 361.785156 353.980469 361.621094 356.96875 361.121094 358.792969 C 360.789062 360.621094 359.628906 363.777344 358.632812 363.941406 C 357.800781 364.273438 356.140625 363.113281 355.640625 362.117188 C 354.976562 360.953125 355.144531 358.128906 355.640625 356.96875 C 355.972656 356.304688 356.636719 355.472656 357.136719 355.472656 C 357.636719 355.308594 358.632812 356.136719 358.964844 356.800781 C 359.296875 357.632812 359.128906 359.957031 358.464844 360.621094 C 357.96875 361.285156 356.636719 361.617188 355.972656 361.285156 C 355.144531 360.621094 354.644531 355.308594 355.476562 354.476562 C 355.972656 353.8125 357.636719 353.8125 358.464844 354.476562 C 359.628906 355.472656 360.457031 360.953125 359.960938 362.613281 C 359.792969 363.445312 359.128906 364.109375 358.464844 364.273438 C 357.96875 364.273438 356.636719 363.113281 356.636719 363.113281 "/></clipPath><clipPath id="22fdb19a34"><path d="M 322.8125 359.175781 L 366.59375 359.175781 L 366.59375 367.683594 L 322.8125 367.683594 Z M 322.8125 359.175781 "/></clipPath><clipPath id="5869fbf974"><path d="M 310 342 L 348 342 L 348 375 L 310 375 Z M 310 342 "/></clipPath><clipPath id="01ce41c8dd"><path d="M 347.785156 373.039062 L 341.769531 379.054688 L 310.8125 348.09375 L 316.828125 342.078125 Z M 347.785156 373.039062 "/></clipPath><clipPath id="0a1611a339"><path d="M 330 326 L 368 326 L 368 364 L 330 364 Z M 330 326 "/></clipPath><clipPath id="561e80c388"><path d="M 367.132812 357.484375 L 361.117188 363.5 L 330.15625 332.539062 L 336.171875 326.523438 Z M 367.132812 357.484375 "/></clipPath><clipPath id="80d4bc8bb4"><path d="M 232 250 L 272 250 L 272 288 L 232 288 Z M 232 250 "/></clipPath><clipPath id="4ad57ab39d"><path d="M 232.746094 257.140625 L 239.164062 250.25 L 271.910156 280.75 L 265.492188 287.640625 Z M 232.746094 257.140625 "/></clipPath><clipPath id="e32e47c53d"><path d="M 253 264 L 292 264 L 292 303 L 253 303 Z M 253 264 "/></clipPath><clipPath id="b9d19d5068"><path d="M 253.09375 271.515625 L 259.597656 264.703125 L 291.964844 295.605469 L 285.460938 302.417969 Z M 253.09375 271.515625 "/></clipPath><clipPath id="bdab708460"><path d="M 222 235 L 293 235 L 293 303 L 222 303 Z M 222 235 "/></clipPath><clipPath id="9d6928f98b"><path d="M 222.523438 242.453125 L 229.082031 235.480469 L 292.828125 295.441406 L 286.269531 302.417969 Z M 222.523438 242.453125 "/></clipPath><clipPath id="67a03684cd"><path d="M 242 261 L 264 261 L 264 284 L 242 284 Z M 242 261 "/></clipPath><clipPath id="02f26a7ab4"><path d="M 252.269531 283.558594 L 242.101562 274.234375 L 253.59375 261.703125 L 263.761719 271.023438 Z M 252.269531 283.558594 "/></clipPath><clipPath id="077ecdce4d"><path d="M 231 231 L 297 231 L 297 300 L 231 300 Z M 231 231 "/></clipPath><clipPath id="9d5ef419e2"><path d="M 231.265625 237.078125 L 237.292969 231.371094 L 296.289062 293.695312 L 290.257812 299.402344 Z M 231.265625 237.078125 "/></clipPath><clipPath id="6c9c71afcd"><path d="M 291 284 L 309 284 L 309 310 L 291 310 Z M 291 284 "/></clipPath><clipPath id="96a65fb107"><path d="M 291.316406 308.925781 L 292.382812 283.503906 L 308.527344 284.179688 L 307.464844 309.601562 Z M 291.316406 308.925781 "/></clipPath><clipPath id="c7ff2ad1f5"><path d="M 291.847656 296.238281 L 308.527344 284.226562 L 307.464844 309.601562 Z M 291.847656 296.238281 "/></clipPath><clipPath id="ccdbfaee3e"><path d="M 290.472656 283.636719 L 310.871094 283.636719 L 310.871094 296.59375 L 290.472656 296.59375 Z M 290.472656 283.636719 "/></clipPath><clipPath id="c6a3877988"><path d="M 300.652344 283.636719 L 310.835938 296.59375 L 290.472656 296.59375 Z M 300.652344 283.636719 "/></clipPath><clipPath id="40d8a02645"><path d="M 316.117188 339.023438 L 375 339.023438 L 375 375 L 316.117188 375 Z M 316.117188 339.023438 "/></clipPath><clipPath id="2841b116f5"><path d="M 334.21875 373.242188 C 342.855469 371.25 353.316406 360.289062 359.628906 361.453125 C 365.9375 362.449219 369.921875 379.21875 375.734375 379.550781 C 382.046875 379.882812 394.003906 359.792969 395.828125 361.121094 C 397.65625 362.28125 393.171875 382.210938 387.691406 385.03125 C 382.378906 387.6875 368.761719 381.878906 363.945312 377.890625 C 360.625 375.070312 359.460938 370.917969 358.464844 367.265625 C 357.636719 364.109375 357.304688 360.621094 357.800781 357.464844 C 358.300781 354.3125 359.792969 350.824219 361.785156 348.332031 C 363.777344 345.84375 366.269531 343.351562 369.425781 342.1875 C 373.410156 340.527344 379.722656 339.699219 384.203125 341.027344 C 388.523438 342.355469 395.828125 349.992188 395.828125 349.992188 C 395.828125 349.992188 384.703125 341.523438 384.867188 341.191406 C 385.035156 341.027344 389.019531 343.019531 390.847656 344.347656 C 392.507812 345.675781 394.167969 347.003906 395.332031 349.328125 C 397.15625 352.316406 399.148438 357.796875 398.984375 362.117188 C 398.652344 366.265625 396.160156 371.414062 394.003906 374.40625 C 392.507812 376.398438 390.847656 377.558594 389.019531 378.722656 C 387.027344 379.882812 385.199219 380.878906 382.710938 381.210938 C 379.222656 381.710938 373.410156 381.546875 369.589844 379.882812 C 365.773438 378.058594 361.785156 373.738281 359.960938 370.75 C 358.464844 368.59375 357.96875 366.933594 357.800781 364.273438 C 357.46875 360.789062 358.464844 354.476562 359.792969 351.320312 C 360.957031 348.996094 361.953125 347.503906 363.945312 345.84375 C 366.769531 343.683594 372.414062 341.027344 375.902344 340.363281 C 378.390625 339.863281 380.21875 339.863281 382.710938 340.695312 C 386.03125 341.691406 391.511719 345.011719 394.003906 347.503906 C 395.828125 349.328125 396.824219 350.824219 397.488281 353.316406 C 398.484375 356.636719 398.984375 362.945312 398.152344 366.433594 C 397.820312 368.925781 396.992188 370.585938 395.496094 372.578125 C 393.171875 375.402344 388.191406 379.21875 384.867188 380.546875 C 382.542969 381.546875 380.882812 382.210938 378.226562 381.710938 C 373.742188 380.878906 363.945312 376.398438 360.625 371.914062 C 357.800781 367.929688 357.304688 361.617188 357.800781 357.464844 C 358.132812 353.980469 359.792969 350.824219 361.785156 348.332031 C 363.777344 345.84375 366.601562 343.515625 369.425781 342.1875 C 372.414062 340.695312 376.066406 340.03125 379.222656 340.195312 C 382.542969 340.363281 386.03125 341.191406 388.855469 343.019531 C 391.84375 345.011719 397.324219 351.320312 396.660156 352.316406 C 395.828125 353.8125 381.214844 343.183594 375.402344 345.34375 C 368.925781 347.835938 362.117188 370.253906 360.957031 369.753906 C 359.792969 369.257812 362.78125 345.675781 368.761719 341.523438 C 374.242188 337.703125 387.859375 338.535156 393.503906 343.019531 C 399.648438 347.835938 403.46875 363.277344 402.304688 371.914062 C 401.144531 379.71875 394.667969 388.519531 388.191406 393.167969 C 382.046875 397.820312 372.082031 396.65625 364.777344 400.144531 C 357.304688 403.632812 348.5 412.101562 344.019531 413.761719 C 342.191406 414.589844 341.691406 414.425781 339.867188 414.425781 C 336.546875 414.257812 329.238281 413.59375 325.585938 411.105469 C 321.765625 408.613281 318.113281 403.464844 316.949219 399.148438 C 315.789062 394.664062 316.785156 388.351562 318.445312 384.535156 C 319.9375 381.210938 322.429688 378.722656 324.921875 376.894531 C 327.578125 375.070312 334.21875 373.242188 334.21875 373.242188 "/></clipPath><clipPath id="377141e035"><path d="M 354.765625 336.734375 L 375 336.734375 L 375 375 L 354.765625 375 Z M 354.765625 336.734375 "/></clipPath><clipPath id="fba4a350e5"><path d="M 395.332031 351.488281 C 395.332031 364.605469 393.835938 367.929688 391.84375 370.417969 C 389.851562 372.910156 387.027344 375.234375 384.039062 376.5625 C 381.214844 377.890625 377.5625 378.554688 374.242188 378.390625 C 371.085938 378.222656 367.597656 377.0625 364.777344 375.402344 C 362.117188 373.738281 359.460938 371.082031 357.800781 368.425781 C 356.140625 365.601562 354.976562 362.117188 354.8125 358.960938 C 354.644531 355.640625 355.308594 351.984375 356.636719 349.164062 C 357.96875 346.175781 360.292969 343.351562 362.78125 341.359375 C 365.273438 339.367188 368.59375 337.871094 371.75 337.207031 C 375.070312 336.707031 378.726562 336.875 381.714844 337.871094 C 384.867188 338.703125 390.183594 343.019531 390.183594 343.019531 "/></clipPath><clipPath id="8522be1252"><path d="M 296.976562 350.351562 L 337.613281 350.351562 L 337.613281 375 L 296.976562 375 Z M 296.976562 350.351562 "/></clipPath><clipPath id="487dd247ce"><path d="M 337.542969 365.105469 C 337.542969 378.222656 336.046875 381.546875 334.054688 384.035156 C 332.0625 386.527344 329.238281 388.851562 326.25 390.179688 C 323.425781 391.507812 319.773438 392.171875 316.453125 392.007812 C 313.296875 391.839844 309.808594 390.679688 306.984375 389.019531 C 304.328125 387.355469 301.671875 384.699219 300.011719 382.042969 C 298.351562 379.21875 297.1875 375.734375 297.023438 372.578125 C 296.855469 369.257812 297.519531 365.601562 298.847656 362.78125 C 300.179688 359.792969 302.503906 356.96875 304.992188 354.976562 C 307.484375 352.984375 310.804688 351.488281 313.960938 350.824219 C 317.28125 350.324219 320.933594 350.492188 323.925781 351.488281 C 327.078125 352.316406 332.394531 356.636719 332.394531 356.636719 "/></clipPath><clipPath id="10ea516424"><path d="M 296.976562 351.015625 L 337.613281 351.015625 L 337.613281 375 L 296.976562 375 Z M 296.976562 351.015625 "/></clipPath><clipPath id="37c3a88eb4"><path d="M 337.542969 365.769531 C 337.542969 378.886719 336.046875 382.210938 334.054688 384.699219 C 332.0625 387.191406 329.238281 389.515625 326.25 390.84375 C 323.425781 392.171875 319.773438 392.835938 316.453125 392.671875 C 313.296875 392.503906 309.808594 391.34375 306.984375 389.683594 C 304.328125 388.019531 301.671875 385.363281 300.011719 382.707031 C 298.351562 379.882812 297.1875 376.398438 297.023438 373.242188 C 296.855469 369.921875 297.519531 366.265625 298.847656 363.445312 C 300.179688 360.457031 302.503906 357.632812 304.992188 355.640625 C 307.484375 353.648438 310.804688 352.152344 313.960938 351.488281 C 317.28125 350.988281 320.933594 351.15625 323.925781 352.152344 C 327.078125 352.984375 332.394531 357.300781 332.394531 357.300781 "/></clipPath><clipPath id="0eca08c8f7"><path d="M 298.304688 351.347656 L 338.941406 351.347656 L 338.941406 375 L 298.304688 375 Z M 298.304688 351.347656 "/></clipPath><clipPath id="40171aa931"><path d="M 338.871094 366.101562 C 338.871094 379.21875 337.375 382.542969 335.382812 385.03125 C 333.390625 387.523438 330.566406 389.847656 327.578125 391.175781 C 324.753906 392.503906 321.101562 393.167969 317.78125 393.003906 C 314.625 392.835938 311.136719 391.675781 308.316406 390.015625 C 305.65625 388.351562 303 385.695312 301.339844 383.039062 C 299.679688 380.214844 298.515625 376.730469 298.351562 373.574219 C 298.183594 370.253906 298.847656 366.597656 300.179688 363.777344 C 301.507812 360.789062 303.832031 357.964844 306.320312 355.972656 C 308.8125 353.980469 312.132812 352.484375 315.289062 351.820312 C 318.609375 351.320312 322.265625 351.488281 325.253906 352.484375 C 328.40625 353.316406 333.722656 357.632812 333.722656 357.632812 "/></clipPath><clipPath id="d2e5f2f3d9"><path d="M 357.183594 344.707031 L 375 344.707031 L 375 375 L 357.183594 375 Z M 357.183594 344.707031 "/></clipPath><clipPath id="6321be740c"><path d="M 401.0625 359.457031 C 401.0625 372.578125 399.449219 375.898438 397.296875 378.390625 C 395.148438 380.878906 392.101562 383.207031 388.875 384.535156 C 385.828125 385.863281 381.886719 386.527344 378.300781 386.359375 C 374.894531 386.195312 371.132812 385.03125 368.085938 383.371094 C 365.21875 381.710938 362.347656 379.054688 360.558594 376.398438 C 358.765625 373.574219 357.511719 370.085938 357.332031 366.933594 C 357.152344 363.609375 357.867188 359.957031 359.300781 357.132812 C 360.738281 354.144531 363.246094 351.320312 365.933594 349.328125 C 368.621094 347.335938 372.207031 345.84375 375.613281 345.175781 C 379.195312 344.679688 383.140625 344.84375 386.367188 345.84375 C 389.769531 346.671875 395.507812 350.988281 395.507812 350.988281 "/></clipPath><clipPath id="fb46c59853"><path d="M 307.273438 271 L 347.910156 271 L 347.910156 312.675781 L 307.273438 312.675781 Z M 307.273438 271 "/></clipPath><clipPath id="8f0db1f15b"><path d="M 347.835938 285.726562 C 347.835938 298.847656 346.34375 302.167969 344.351562 304.660156 C 342.355469 307.148438 339.535156 309.472656 336.546875 310.804688 C 333.722656 312.132812 330.070312 312.796875 326.746094 312.628906 C 323.59375 312.464844 320.105469 311.300781 317.28125 309.640625 C 314.625 307.980469 311.96875 305.324219 310.308594 302.667969 C 308.648438 299.84375 307.484375 296.355469 307.320312 293.199219 C 307.152344 289.878906 307.816406 286.226562 309.144531 283.402344 C 310.472656 280.414062 312.796875 277.589844 315.289062 275.597656 C 317.78125 273.605469 321.101562 272.109375 324.257812 271.445312 C 327.578125 270.949219 331.230469 271.113281 334.21875 272.109375 C 337.375 272.941406 342.6875 277.257812 342.6875 277.257812 "/></clipPath><clipPath id="983ad2ecc5"><path d="M 306.273438 271.304688 L 346.914062 271.304688 L 346.914062 313 L 306.273438 313 Z M 306.273438 271.304688 "/></clipPath><clipPath id="6a3e088a49"><path d="M 346.839844 286.058594 C 346.839844 299.179688 345.347656 302.5 343.355469 304.992188 C 341.359375 307.480469 338.539062 309.808594 335.546875 311.136719 C 332.726562 312.464844 329.074219 313.128906 325.75 312.960938 C 322.597656 312.796875 319.109375 311.632812 316.285156 309.972656 C 313.628906 308.3125 310.972656 305.65625 309.3125 303 C 307.652344 300.175781 306.488281 296.6875 306.320312 293.53125 C 306.15625 290.210938 306.820312 286.558594 308.148438 283.734375 C 309.476562 280.746094 311.800781 277.921875 314.292969 275.929688 C 316.785156 273.9375 320.105469 272.441406 323.261719 271.777344 C 326.582031 271.28125 330.234375 271.445312 333.222656 272.441406 C 336.378906 273.273438 341.691406 277.589844 341.691406 277.589844 "/></clipPath><clipPath id="d59d7ad7d2"><path d="M 305.113281 275.128906 L 345.75 275.128906 L 345.75 316.832031 L 305.113281 316.832031 Z M 305.113281 275.128906 "/></clipPath><clipPath id="6d72ebd624"><path d="M 345.679688 289.882812 C 345.679688 303 344.183594 306.320312 342.191406 308.8125 C 340.199219 311.304688 337.375 313.628906 334.386719 314.957031 C 331.5625 316.285156 327.910156 316.949219 324.589844 316.785156 C 321.433594 316.617188 317.945312 315.457031 315.125 313.792969 C 312.464844 312.132812 309.808594 309.476562 308.148438 306.820312 C 306.488281 303.996094 305.324219 300.511719 305.160156 297.355469 C 304.992188 294.035156 305.65625 290.378906 306.984375 287.558594 C 308.316406 284.566406 310.640625 281.746094 313.128906 279.753906 C 315.621094 277.757812 318.941406 276.265625 322.097656 275.601562 C 325.417969 275.101562 329.074219 275.269531 332.0625 276.265625 C 335.214844 277.09375 340.53125 281.414062 340.53125 281.414062 "/></clipPath><clipPath id="da2fb76e67"><path d="M 298.195312 286.792969 L 314.222656 286.792969 L 314.222656 302.933594 L 298.195312 302.933594 Z M 298.195312 286.792969 "/></clipPath><clipPath id="b8e8774369"><path d="M 314.125 292.371094 C 313.792969 298.347656 311.636719 301.503906 309.644531 302.5 C 307.484375 303.332031 303.664062 302.832031 301.839844 302 C 300.511719 301.335938 299.679688 300.507812 299.015625 299.179688 C 298.183594 297.351562 298.019531 293.367188 298.515625 291.375 C 299.015625 290.046875 299.84375 289.050781 301.007812 288.386719 C 302.835938 287.222656 306.652344 286.558594 308.648438 286.890625 C 309.976562 287.222656 311.96875 289.050781 311.96875 289.050781 "/></clipPath><clipPath id="712190c6ff"><path d="M 304.839844 294.765625 L 320.867188 294.765625 L 320.867188 310.90625 L 304.839844 310.90625 Z M 304.839844 294.765625 "/></clipPath><clipPath id="5cc3ce1777"><path d="M 320.769531 300.339844 C 320.4375 306.320312 318.277344 309.472656 316.285156 310.472656 C 314.125 311.300781 310.308594 310.804688 308.480469 309.972656 C 307.152344 309.308594 306.320312 308.476562 305.65625 307.148438 C 304.828125 305.324219 304.660156 301.335938 305.160156 299.34375 C 305.65625 298.015625 306.488281 297.019531 307.652344 296.355469 C 309.476562 295.191406 313.296875 294.527344 315.289062 294.859375 C 316.617188 295.191406 318.609375 297.019531 318.609375 297.019531 "/></clipPath><clipPath id="8282960352"><path d="M 301.515625 293.4375 L 317.542969 293.4375 L 317.542969 309.578125 L 301.515625 309.578125 Z M 301.515625 293.4375 "/></clipPath><clipPath id="05882754de"><path d="M 317.449219 299.011719 C 317.117188 304.992188 314.957031 308.144531 312.964844 309.140625 C 310.804688 309.972656 306.984375 309.472656 305.160156 308.644531 C 303.832031 307.980469 303 307.148438 302.335938 305.820312 C 301.507812 303.996094 301.339844 300.007812 301.839844 298.015625 C 302.335938 296.6875 303.167969 295.691406 304.328125 295.027344 C 306.15625 293.863281 309.976562 293.199219 311.96875 293.53125 C 313.296875 293.863281 315.289062 295.691406 315.289062 295.691406 "/></clipPath><clipPath id="70ffb55727"><path d="M 299.855469 282.808594 L 315.882812 282.808594 L 315.882812 298.949219 L 299.855469 298.949219 Z M 299.855469 282.808594 "/></clipPath><clipPath id="a5d6feaa89"><path d="M 315.789062 288.386719 C 315.457031 294.363281 313.296875 297.519531 311.304688 298.515625 C 309.144531 299.34375 305.324219 298.847656 303.5 298.015625 C 302.171875 297.351562 301.339844 296.523438 300.675781 295.191406 C 299.84375 293.367188 299.679688 289.382812 300.179688 287.386719 C 300.675781 286.058594 301.507812 285.0625 302.667969 284.398438 C 304.496094 283.238281 308.316406 282.574219 310.308594 282.90625 C 311.636719 283.238281 313.628906 285.0625 313.628906 285.0625 "/></clipPath><clipPath id="a853cb8d8e"><path d="M 297.199219 288.453125 L 313.226562 288.453125 L 313.226562 304.59375 L 297.199219 304.59375 Z M 297.199219 288.453125 "/></clipPath><clipPath id="cf38a831a6"><path d="M 313.128906 294.03125 C 312.796875 300.007812 310.640625 303.164062 308.648438 304.160156 C 306.488281 304.992188 302.667969 304.492188 300.84375 303.664062 C 299.511719 303 298.683594 302.167969 298.019531 300.839844 C 297.1875 299.011719 297.023438 295.027344 297.519531 293.035156 C 298.019531 291.707031 298.847656 290.710938 300.011719 290.046875 C 301.839844 288.882812 305.65625 288.21875 307.652344 288.550781 C 308.980469 288.882812 310.972656 290.710938 310.972656 290.710938 "/></clipPath><clipPath id="2b581476af"><path d="M 294.777344 289.628906 L 304.441406 289.628906 L 304.441406 298.601562 L 294.777344 298.601562 Z M 294.777344 289.628906 "/></clipPath><clipPath id="69bf18fcfd"><path d="M 303.332031 295.359375 C 295.859375 298.015625 295.03125 296.6875 294.863281 295.859375 C 294.699219 294.859375 295.03125 293.367188 295.859375 292.867188 C 296.691406 292.203125 299.847656 292.203125 300.675781 293.035156 C 301.339844 293.53125 301.671875 295.027344 301.339844 296.023438 C 301.175781 296.855469 300.179688 298.015625 299.347656 298.347656 C 298.515625 298.679688 297.023438 298.515625 296.191406 297.851562 C 295.363281 297.1875 294.699219 295.191406 295.03125 294.03125 C 295.695312 292.371094 300.34375 289.546875 302.003906 289.714844 C 303 289.714844 303.996094 290.875 304.328125 291.707031 C 304.660156 292.703125 303.332031 295.359375 303.332031 295.359375 "/></clipPath><clipPath id="05f584ee89"><path d="M 295.464844 284.171875 L 306.527344 284.171875 L 306.527344 298.378906 L 295.464844 298.378906 Z M 295.464844 284.171875 "/></clipPath><clipPath id="f84d3c8b5d"><path d="M 295.527344 293.199219 C 302.171875 284.398438 303.996094 284.234375 304.992188 284.730469 C 305.824219 285.230469 306.488281 287.386719 306.320312 288.550781 C 306.15625 289.382812 305.160156 290.542969 304.164062 290.710938 C 303.167969 290.875 301.007812 290.210938 300.34375 289.382812 C 299.84375 288.71875 299.679688 287.054688 300.179688 286.226562 C 300.511719 285.394531 302.503906 284.066406 303.5 284.234375 C 304.660156 284.398438 306.320312 285.726562 306.488281 287.054688 C 306.820312 289.382812 303 295.527344 300.84375 297.1875 C 299.511719 298.183594 297.519531 298.679688 296.523438 298.183594 C 295.695312 297.519531 295.527344 293.199219 295.527344 293.199219 "/></clipPath><clipPath id="c9dd26f180"><path d="M 291 263 L 340 263 L 340 314 L 291 314 Z M 291 263 "/></clipPath><clipPath id="0da7ac0025"><path d="M 291.710938 295.777344 L 315.167969 263.1875 L 339.421875 280.644531 L 315.964844 313.234375 Z M 291.710938 295.777344 "/></clipPath><clipPath id="67a2f99467"><path d="M 232.757812 359.125 L 375 359.125 L 375 373.40625 L 232.757812 373.40625 Z M 232.757812 359.125 "/></clipPath><clipPath id="1026b0a746"><path d="M 272 307 L 340 307 L 340 372 L 272 372 Z M 272 307 "/></clipPath><clipPath id="5206185d20"><path d="M 331.023438 371.707031 L 272.515625 315.875 L 280.894531 307.09375 L 339.40625 362.925781 Z M 331.023438 371.707031 "/></clipPath><clipPath id="6ee7a2a735"><path d="M 243 280 L 283 280 L 283 320 L 243 320 Z M 243 280 "/></clipPath><clipPath id="f4d8505125"><path d="M 243.058594 292.527344 L 255.347656 280.238281 L 282.144531 307.039062 L 269.859375 319.324219 Z M 243.058594 292.527344 "/></clipPath></defs><g id="400917cdb3"><g clip-rule="nonzero" clip-path="url(#470616933b)"><g clip-rule="nonzero" clip-path="url(#cf90165218)"><path style=" stroke:none;fill-rule:nonzero;fill:#ffffff;fill-opacity:1;" d="M 233.578125 200.625 L 263.074219 200.625 L 263.074219 230.121094 L 233.578125 230.121094 Z M 233.578125 200.625 "/></g></g><path style=" stroke:none;fill-rule:nonzero;fill:#2465a2;fill-opacity:1;" d="M 341.578125 59.792969 L 182.953125 10.472656 L 24.328125 59.792969 C 24.328125 59.792969 -14.265625 307.195312 182.953125 368.902344 C 380.097656 307.195312 341.578125 59.792969 341.578125 59.792969 Z M 341.578125 59.792969 "/><g clip-rule="nonzero" clip-path="url(#0149b6dc43)"><path style=" stroke:none;fill-rule:nonzero;fill:#2465a2;fill-opacity:1;" d="M 182.953125 369.695312 L 182.738281 369.625 C 137.589844 355.511719 101.15625 330.382812 74.371094 295.027344 C 52.988281 266.730469 37.722656 231.882812 28.9375 191.34375 C 21.160156 155.34375 20.152344 121.429688 20.585938 99.394531 C 21.089844 75.488281 23.539062 59.792969 23.539062 59.648438 L 23.609375 59.144531 L 182.953125 9.679688 L 342.226562 59.21875 L 342.296875 59.722656 C 342.296875 59.867188 344.746094 75.488281 345.25 99.46875 C 345.753906 121.570312 344.671875 155.414062 336.898438 191.414062 C 328.183594 231.882812 312.847656 266.804688 291.460938 295.101562 C 264.675781 330.453125 228.242188 355.582031 183.097656 369.695312 Z M 25.050781 60.371094 C 24.617188 63.175781 22.675781 77.9375 22.171875 99.46875 C 21.664062 121.5 22.746094 155.199219 30.449219 191.054688 C 39.164062 231.378906 54.355469 266.011719 75.597656 294.09375 C 102.09375 329.15625 138.238281 354 182.953125 368.039062 C 227.667969 354 263.742188 329.15625 290.3125 294.09375 C 311.550781 266.011719 326.746094 231.304688 335.457031 191.054688 C 343.160156 155.199219 344.242188 121.429688 343.738281 99.46875 C 343.234375 77.9375 341.289062 63.175781 340.855469 60.371094 L 182.953125 11.261719 Z M 25.050781 60.371094 "/></g><g clip-rule="nonzero" clip-path="url(#2594780707)"><path style=" stroke:none;fill-rule:evenodd;fill:#ffffff;fill-opacity:1;" d="M 182.925781 243.917969 C 153.007812 243.917969 128.773438 219.6875 128.773438 189.835938 C 128.773438 159.914062 153.007812 135.683594 182.925781 135.683594 C 212.777344 135.683594 237.011719 159.914062 237.011719 189.835938 C 237.011719 219.6875 212.777344 243.917969 182.925781 243.917969 Z M 205.671875 159.238281 C 204.113281 158.15625 203.84375 155.988281 204.925781 154.5 C 206.078125 153.011719 208.175781 152.671875 209.734375 153.824219 C 211.492188 155.175781 213.183594 156.667969 214.808594 158.289062 C 216.433594 159.914062 217.855469 161.609375 219.210938 163.433594 C 220.292969 164.992188 219.953125 167.089844 218.398438 168.171875 C 216.90625 169.257812 214.808594 168.917969 213.660156 167.429688 C 212.574219 165.871094 211.289062 164.382812 210.003906 163.027344 C 208.648438 161.675781 207.226562 160.457031 205.671875 159.238281 Z M 218.9375 177.515625 C 218.328125 175.753906 219.277344 173.859375 221.035156 173.25 C 222.796875 172.640625 224.761719 173.589844 225.371094 175.417969 C 226.113281 177.71875 226.722656 180.085938 227.128906 182.457031 C 227.46875 184.894531 227.671875 187.332031 227.671875 189.699219 C 227.671875 197.820312 225.503906 205.675781 221.511719 212.441406 C 217.515625 219.210938 211.695312 224.964844 204.589844 228.890625 C 202.964844 229.839844 200.863281 229.230469 199.984375 227.539062 C 199.039062 225.914062 199.648438 223.882812 201.339844 222.933594 C 207.363281 219.617188 212.238281 214.746094 215.621094 208.992188 C 219.007812 203.304688 220.902344 196.605469 220.902344 189.699219 C 220.902344 187.601562 220.765625 185.570312 220.429688 183.539062 C 220.089844 181.507812 219.546875 179.476562 218.9375 177.515625 Z M 299.488281 305.246094 C 282.703125 288.527344 265.984375 271.738281 249.195312 254.953125 L 238.773438 244.527344 L 231.191406 237.015625 C 243.105469 224.832031 250.414062 208.179688 250.414062 189.835938 C 250.414062 171.152344 242.832031 154.296875 230.648438 142.113281 C 218.398438 129.859375 201.542969 122.347656 182.925781 122.347656 C 164.246094 122.347656 147.390625 129.859375 135.207031 142.113281 C 122.953125 154.296875 115.441406 171.152344 115.441406 189.835938 C 115.441406 208.449219 122.953125 225.304688 135.207031 237.554688 C 147.390625 249.742188 164.246094 257.320312 182.925781 257.320312 C 196.601562 257.320312 209.257812 253.261719 219.886719 246.289062 L 219.75 246.425781 L 227.46875 254.140625 C 213.929688 263.550781 198.226562 268.085938 182.589844 268.015625 L 182.589844 268.085938 C 167.289062 268.085938 151.652344 263.550781 137.574219 253.53125 C 133.988281 250.960938 130.671875 248.183594 127.625 245.070312 C 112.054688 229.570312 104.609375 209.464844 104.746094 189.496094 L 104.675781 189.496094 C 104.609375 174.199219 109.144531 158.5625 119.230469 144.480469 C 121.734375 140.894531 124.578125 137.578125 127.691406 134.53125 C 143.191406 118.960938 163.296875 111.515625 183.265625 111.652344 L 183.265625 111.585938 C 198.496094 111.515625 214.132812 116.050781 228.28125 126.136719 C 231.800781 128.640625 235.117188 131.484375 238.230469 134.597656 C 253.730469 150.101562 261.175781 170.203125 261.109375 190.171875 L 261.175781 190.171875 C 261.175781 205.402344 256.640625 221.039062 246.625 235.1875 L 246.21875 235.730469 L 256.710938 246.289062 C 269.300781 229.839844 275.730469 210.074219 275.796875 190.171875 L 275.867188 190.171875 C 275.933594 170.746094 269.976562 151.25 257.792969 134.734375 L 264.359375 128.167969 C 278.234375 146.378906 285.140625 168.105469 285.070312 189.835938 C 285.003906 211.96875 277.761719 234.171875 263.277344 252.855469 L 273.835938 263.347656 C 277.21875 259.21875 280.199219 254.886719 282.90625 250.417969 C 294.277344 231.667969 299.828125 210.886719 299.828125 190.171875 L 299.894531 190.171875 C 299.894531 159.984375 288.1875 129.792969 265.035156 106.574219 L 248.046875 123.566406 C 230.242188 105.964844 206.820312 97.03125 183.265625 96.894531 L 183.265625 96.828125 C 163.839844 96.761719 144.34375 102.71875 127.828125 114.96875 L 121.261719 108.402344 C 139.46875 94.527344 161.199219 87.621094 182.925781 87.621094 L 182.925781 87.691406 C 205.0625 87.757812 227.265625 95 245.945312 109.417969 L 256.4375 98.925781 C 252.308594 95.542969 247.976562 92.496094 243.511719 89.789062 C 224.761719 78.484375 203.980469 72.933594 183.265625 72.867188 C 153.074219 72.867188 122.886719 84.507812 99.667969 107.726562 L 116.660156 124.648438 C 99.058594 142.519531 90.125 165.941406 89.988281 189.496094 L 89.921875 189.496094 C 89.851562 208.855469 95.808594 228.351562 108.0625 244.933594 L 101.496094 251.5 C 87.617188 233.222656 80.714844 211.5625 80.714844 189.835938 L 80.78125 189.835938 C 80.851562 167.632812 88.09375 145.429688 102.511719 126.816406 L 92.019531 116.253906 C 88.632812 120.382812 85.589844 124.714844 82.878906 129.25 C 71.578125 147.933594 66.027344 168.78125 65.957031 189.496094 C 65.957031 219.6875 77.601562 249.875 100.820312 273.027344 L 117.742188 256.105469 C 135.613281 273.636719 159.03125 282.636719 182.589844 282.707031 L 182.589844 282.773438 C 201.949219 282.839844 221.441406 276.882812 238.027344 264.699219 L 244.59375 271.265625 C 226.316406 285.144531 204.65625 292.046875 182.925781 291.980469 C 160.726562 291.910156 138.523438 284.667969 119.90625 270.183594 L 109.347656 280.742188 C 113.476562 284.128906 117.808594 287.105469 122.34375 289.8125 C 139.0625 299.96875 157.476562 305.519531 175.957031 306.53125 L 189.765625 306.53125 C 212.914062 305.179688 235.726562 296.851562 255.085938 281.757812 L 255.828125 282.503906 L 258.605469 285.277344 L 260.769531 287.445312 L 263.546875 290.152344 L 265.644531 292.316406 L 268.421875 295.09375 C 270.789062 297.460938 273.160156 299.832031 275.527344 302.199219 L 278.574219 305.246094 Z M 82.878906 129.183594 Z M 243.511719 89.789062 Z M 282.90625 250.417969 Z M 122.277344 289.8125 Z M 122.277344 289.8125 "/></g><g clip-rule="nonzero" clip-path="url(#5c0a81485f)"><g clip-rule="nonzero" clip-path="url(#523e7ec1a3)"><path style=" stroke:none;fill-rule:nonzero;fill:#ffffff;fill-opacity:1;" d="M 245.136719 273.136719 L 256.097656 261.710938 L 359.648438 361.066406 L 348.6875 372.492188 Z M 245.136719 273.136719 "/></g></g><g clip-rule="nonzero" clip-path="url(#f2af82617e)"><g clip-rule="nonzero" clip-path="url(#a296bb4226)"><g clip-rule="nonzero" clip-path="url(#301fcaf1fb)"><path style="fill:none;stroke-width:1.806566;stroke-linecap:butt;stroke-linejoin:miter;stroke:#2465a2;stroke-opacity:1;stroke-miterlimit:4;" d="M -0.0000230962 0.00110166 L 9.531196 -0.000761673 L 9.53034 86.390072 L 0.000826433 86.390299 Z M -0.0000230962 0.00110166 " transform="matrix(1.144089,-1.192403,1.192403,1.144089,245.154963,273.154962)"/></g></g></g><path style="fill:none;stroke-width:4;stroke-linecap:butt;stroke-linejoin:miter;stroke:#2465a2;stroke-opacity:1;stroke-miterlimit:4;" d="M 0.000650636 1.999741 L 44.209801 2.000038 " transform="matrix(1.652567,0.0368343,-0.0368343,1.652567,286.338209,356.128863)"/><g clip-rule="nonzero" clip-path="url(#4209871659)"><g clip-rule="nonzero" clip-path="url(#cdae626735)"><path style=" stroke:none;fill-rule:nonzero;fill:#ffffff;fill-opacity:1;" d="M 279.550781 349.984375 L 325.246094 349.984375 L 325.246094 368.914062 L 279.550781 368.914062 Z M 279.550781 349.984375 "/></g></g><g clip-rule="nonzero" clip-path="url(#4af925f9fc)"><path style=" stroke:none;fill-rule:nonzero;fill:#ffffff;fill-opacity:1;" d="M 252.292969 359.191406 L 466.949219 359.191406 L 466.949219 382.300781 L 252.292969 382.300781 Z M 252.292969 359.191406 "/></g><g clip-rule="nonzero" clip-path="url(#ad7476751e)"><g clip-rule="nonzero" clip-path="url(#38ea83898b)"><path style=" stroke:none;fill-rule:nonzero;fill:#000000;fill-opacity:1;" d="M 364.777344 366.597656 L 413.742188 366.597656 L 413.742188 389.515625 L 364.777344 389.515625 Z M 364.777344 366.597656 "/></g></g><g clip-rule="nonzero" clip-path="url(#19cc0e4dfb)"><g clip-rule="nonzero" clip-path="url(#5d296f487a)"><path style=" stroke:none;fill-rule:nonzero;fill:#000000;fill-opacity:1;" d="M 315.289062 350.492188 L 336.710938 350.492188 L 336.710938 379.027344 L 315.289062 379.027344 Z M 315.289062 350.492188 "/></g></g><g clip-rule="nonzero" clip-path="url(#d0afa26bbe)"><g clip-rule="nonzero" clip-path="url(#e292e8a339)"><path style=" stroke:none;fill-rule:nonzero;fill:#000000;fill-opacity:1;" d="M 318.777344 349.992188 L 337.042969 349.992188 L 337.042969 371.398438 L 318.777344 371.398438 Z M 318.777344 349.992188 "/></g></g><g clip-rule="nonzero" clip-path="url(#aec6942aa3)"><g clip-rule="nonzero" clip-path="url(#2b0aabbda9)"><path style=" stroke:none;fill-rule:nonzero;fill:#ffffff;fill-opacity:1;" d="M 319.9375 350.324219 L 338.703125 350.324219 L 338.703125 372.902344 L 319.9375 372.902344 Z M 319.9375 350.324219 "/></g></g><g clip-rule="nonzero" clip-path="url(#af07a409cd)"><g clip-rule="nonzero" clip-path="url(#d6f8b19e7f)"><path style=" stroke:none;fill-rule:nonzero;fill:#000000;fill-opacity:1;" d="M 322.429688 348.996094 L 342.355469 348.996094 L 342.355469 375.539062 L 322.429688 375.539062 Z M 322.429688 348.996094 "/></g></g><g clip-rule="nonzero" clip-path="url(#e28f0bd8f0)"><g clip-rule="nonzero" clip-path="url(#858c7c7afd)"><path style=" stroke:none;fill-rule:nonzero;fill:#000000;fill-opacity:1;" d="M 320.269531 349.660156 L 336.695312 349.660156 L 336.695312 365.769531 L 320.269531 365.769531 Z M 320.269531 349.660156 "/></g></g><g clip-rule="nonzero" clip-path="url(#accc52501b)"><g clip-rule="nonzero" clip-path="url(#3f7641b4b8)"><path style=" stroke:none;fill-rule:nonzero;fill:#ffffff;fill-opacity:1;" d="M 348.003906 345.011719 L 366.601562 345.011719 L 366.601562 381.847656 L 348.003906 381.847656 Z M 348.003906 345.011719 "/></g></g><g clip-rule="nonzero" clip-path="url(#7d5d4c2a3c)"><g clip-rule="nonzero" clip-path="url(#c91d1f7351)"><path style=" stroke:none;fill-rule:nonzero;fill:#000000;fill-opacity:1;" d="M 348.667969 346.839844 L 373.578125 346.839844 L 373.578125 379.046875 L 348.667969 379.046875 Z M 348.667969 346.839844 "/></g></g><g clip-rule="nonzero" clip-path="url(#22fdb19a34)"><path style=" stroke:none;fill-rule:nonzero;fill:#000000;fill-opacity:1;" d="M 322.8125 367.683594 L 322.8125 359.175781 L 366.582031 359.175781 L 366.582031 367.683594 Z M 322.8125 367.683594 "/></g><g clip-rule="nonzero" clip-path="url(#5869fbf974)"><g clip-rule="nonzero" clip-path="url(#01ce41c8dd)"><path style=" stroke:none;fill-rule:nonzero;fill:#000000;fill-opacity:1;" d="M 347.785156 373.039062 L 341.769531 379.054688 L 310.820312 348.105469 L 316.835938 342.089844 Z M 347.785156 373.039062 "/></g></g><g clip-rule="nonzero" clip-path="url(#0a1611a339)"><g clip-rule="nonzero" clip-path="url(#561e80c388)"><path style=" stroke:none;fill-rule:nonzero;fill:#ffffff;fill-opacity:1;" d="M 367.132812 357.484375 L 361.117188 363.5 L 330.167969 332.550781 L 336.183594 326.535156 Z M 367.132812 357.484375 "/></g></g><g clip-rule="nonzero" clip-path="url(#80d4bc8bb4)"><g clip-rule="nonzero" clip-path="url(#4ad57ab39d)"><path style=" stroke:none;fill-rule:nonzero;fill:#ffffff;fill-opacity:1;" d="M 232.746094 257.140625 L 239.164062 250.25 L 271.898438 280.738281 L 265.480469 287.628906 Z M 232.746094 257.140625 "/></g></g><g clip-rule="nonzero" clip-path="url(#e32e47c53d)"><g clip-rule="nonzero" clip-path="url(#b9d19d5068)"><path style=" stroke:none;fill-rule:nonzero;fill:#ffffff;fill-opacity:1;" d="M 253.09375 271.515625 L 259.597656 264.703125 L 291.953125 295.59375 L 285.449219 302.40625 Z M 253.09375 271.515625 "/></g></g><g clip-rule="nonzero" clip-path="url(#bdab708460)"><g clip-rule="nonzero" clip-path="url(#9d6928f98b)"><path style=" stroke:none;fill-rule:nonzero;fill:#ffffff;fill-opacity:1;" d="M 222.523438 242.453125 L 229.082031 235.480469 L 292.820312 295.4375 L 286.261719 302.410156 Z M 222.523438 242.453125 "/></g></g><g clip-rule="nonzero" clip-path="url(#67a03684cd)"><g clip-rule="nonzero" clip-path="url(#02f26a7ab4)"><path style=" stroke:none;fill-rule:nonzero;fill:#ffffff;fill-opacity:1;" d="M 252.269531 283.558594 L 242.101562 274.234375 L 253.609375 261.683594 L 263.777344 271.007812 Z M 252.269531 283.558594 "/></g></g><g clip-rule="nonzero" clip-path="url(#077ecdce4d)"><g clip-rule="nonzero" clip-path="url(#9d5ef419e2)"><path style=" stroke:none;fill-rule:nonzero;fill:#2465a2;fill-opacity:1;" d="M 231.265625 237.078125 L 237.292969 231.371094 L 296.289062 293.695312 L 290.257812 299.40625 Z M 231.265625 237.078125 "/></g></g><g clip-rule="nonzero" clip-path="url(#6c9c71afcd)"><g clip-rule="nonzero" clip-path="url(#96a65fb107)"><g clip-rule="nonzero" clip-path="url(#c7ff2ad1f5)"><path style=" stroke:none;fill-rule:nonzero;fill:#ffffff;fill-opacity:1;" d="M 291.316406 308.925781 L 292.378906 283.566406 L 308.527344 284.242188 L 307.464844 309.601562 Z M 291.316406 308.925781 "/></g></g></g><g clip-rule="nonzero" clip-path="url(#ccdbfaee3e)"><g clip-rule="nonzero" clip-path="url(#c6a3877988)"><path style=" stroke:none;fill-rule:nonzero;fill:#ffffff;fill-opacity:1;" d="M 290.472656 283.636719 L 310.820312 283.636719 L 310.820312 296.59375 L 290.472656 296.59375 Z M 290.472656 283.636719 "/></g></g><g clip-rule="nonzero" clip-path="url(#40d8a02645)"><g clip-rule="nonzero" clip-path="url(#2841b116f5)"><path style=" stroke:none;fill-rule:nonzero;fill:#ffffff;fill-opacity:1;" d="M 310.308594 333.554688 L 409.101562 333.554688 L 409.101562 421.066406 L 310.308594 421.066406 Z M 310.308594 333.554688 "/></g></g><g clip-rule="nonzero" clip-path="url(#377141e035)"><g clip-rule="nonzero" clip-path="url(#fba4a350e5)"><path style=" stroke:none;fill-rule:nonzero;fill:#ffffff;fill-opacity:1;" d="M 348.167969 330.5625 L 402.636719 330.5625 L 402.636719 385.03125 L 348.167969 385.03125 Z M 348.167969 330.5625 "/></g></g><g clip-rule="nonzero" clip-path="url(#8522be1252)"><g clip-rule="nonzero" clip-path="url(#487dd247ce)"><path style=" stroke:none;fill-rule:nonzero;fill:#ffffff;fill-opacity:1;" d="M 290.378906 344.179688 L 344.847656 344.179688 L 344.847656 398.648438 L 290.378906 398.648438 Z M 290.378906 344.179688 "/></g></g><g clip-rule="nonzero" clip-path="url(#10ea516424)"><g clip-rule="nonzero" clip-path="url(#37c3a88eb4)"><path style=" stroke:none;fill-rule:nonzero;fill:#ffffff;fill-opacity:1;" d="M 290.378906 344.84375 L 344.847656 344.84375 L 344.847656 399.3125 L 290.378906 399.3125 Z M 290.378906 344.84375 "/></g></g><g clip-rule="nonzero" clip-path="url(#0eca08c8f7)"><g clip-rule="nonzero" clip-path="url(#40171aa931)"><path style=" stroke:none;fill-rule:nonzero;fill:#ffffff;fill-opacity:1;" d="M 291.707031 345.175781 L 346.175781 345.175781 L 346.175781 399.644531 L 291.707031 399.644531 Z M 291.707031 345.175781 "/></g></g><g clip-rule="nonzero" clip-path="url(#d2e5f2f3d9)"><g clip-rule="nonzero" clip-path="url(#6321be740c)"><path style=" stroke:none;fill-rule:nonzero;fill:#ffffff;fill-opacity:1;" d="M 350.164062 338.535156 L 408.886719 338.535156 L 408.886719 393.003906 L 350.164062 393.003906 Z M 350.164062 338.535156 "/></g></g><g clip-rule="nonzero" clip-path="url(#fb46c59853)"><g clip-rule="nonzero" clip-path="url(#8f0db1f15b)"><path style=" stroke:none;fill-rule:nonzero;fill:#ffffff;fill-opacity:1;" d="M 300.675781 264.804688 L 355.144531 264.804688 L 355.144531 319.273438 L 300.675781 319.273438 Z M 300.675781 264.804688 "/></g></g><g clip-rule="nonzero" clip-path="url(#983ad2ecc5)"><g clip-rule="nonzero" clip-path="url(#6a3e088a49)"><path style=" stroke:none;fill-rule:nonzero;fill:#ffffff;fill-opacity:1;" d="M 299.679688 265.136719 L 354.148438 265.136719 L 354.148438 319.605469 L 299.679688 319.605469 Z M 299.679688 265.136719 "/></g></g><g clip-rule="nonzero" clip-path="url(#d59d7ad7d2)"><g clip-rule="nonzero" clip-path="url(#6d72ebd624)"><path style=" stroke:none;fill-rule:nonzero;fill:#ffffff;fill-opacity:1;" d="M 298.515625 268.957031 L 352.984375 268.957031 L 352.984375 323.425781 L 298.515625 323.425781 Z M 298.515625 268.957031 "/></g></g><g clip-rule="nonzero" clip-path="url(#da2fb76e67)"><g clip-rule="nonzero" clip-path="url(#b8e8774369)"><path style=" stroke:none;fill-rule:nonzero;fill:#000000;fill-opacity:1;" d="M 291.875 280.246094 L 320.882812 280.246094 L 320.882812 309.140625 L 291.875 309.140625 Z M 291.875 280.246094 "/></g></g><g clip-rule="nonzero" clip-path="url(#712190c6ff)"><g clip-rule="nonzero" clip-path="url(#5cc3ce1777)"><path style=" stroke:none;fill-rule:nonzero;fill:#ffffff;fill-opacity:1;" d="M 298.515625 288.21875 L 327.523438 288.21875 L 327.523438 317.113281 L 298.515625 317.113281 Z M 298.515625 288.21875 "/></g></g><g clip-rule="nonzero" clip-path="url(#8282960352)"><g clip-rule="nonzero" clip-path="url(#05882754de)"><path style=" stroke:none;fill-rule:nonzero;fill:#ffffff;fill-opacity:1;" d="M 295.195312 286.890625 L 324.203125 286.890625 L 324.203125 315.785156 L 295.195312 315.785156 Z M 295.195312 286.890625 "/></g></g><g clip-rule="nonzero" clip-path="url(#70ffb55727)"><g clip-rule="nonzero" clip-path="url(#a5d6feaa89)"><path style=" stroke:none;fill-rule:nonzero;fill:#000000;fill-opacity:1;" d="M 293.535156 276.261719 L 322.542969 276.261719 L 322.542969 305.15625 L 293.535156 305.15625 Z M 293.535156 276.261719 "/></g></g><g clip-rule="nonzero" clip-path="url(#a853cb8d8e)"><g clip-rule="nonzero" clip-path="url(#cf38a831a6)"><path style=" stroke:none;fill-rule:nonzero;fill:#ffffff;fill-opacity:1;" d="M 290.878906 281.910156 L 319.886719 281.910156 L 319.886719 310.804688 L 290.878906 310.804688 Z M 290.878906 281.910156 "/></g></g><g clip-rule="nonzero" clip-path="url(#2b581476af)"><g clip-rule="nonzero" clip-path="url(#69bf18fcfd)"><path style=" stroke:none;fill-rule:nonzero;fill:#ffffff;fill-opacity:1;" d="M 288.222656 283.070312 L 310.996094 283.070312 L 310.996094 305.15625 L 288.222656 305.15625 Z M 288.222656 283.070312 "/></g></g><g clip-rule="nonzero" clip-path="url(#05f584ee89)"><g clip-rule="nonzero" clip-path="url(#f84d3c8b5d)"><path style=" stroke:none;fill-rule:nonzero;fill:#000000;fill-opacity:1;" d="M 288.886719 277.589844 L 313.296875 277.589844 L 313.296875 304.863281 L 288.886719 304.863281 Z M 288.886719 277.589844 "/></g></g><g clip-rule="nonzero" clip-path="url(#c9dd26f180)"><g clip-rule="nonzero" clip-path="url(#0da7ac0025)"><path style=" stroke:none;fill-rule:nonzero;fill:#ffffff;fill-opacity:1;" d="M 291.710938 295.777344 L 315.167969 263.1875 L 339.421875 280.644531 L 315.964844 313.234375 Z M 291.710938 295.777344 "/></g></g><g clip-rule="nonzero" clip-path="url(#67a2f99467)"><path style=" stroke:none;fill-rule:nonzero;fill:#ffffff;fill-opacity:1;" d="M 232.757812 359.125 L 481.84375 359.125 L 481.84375 373.40625 L 232.757812 373.40625 Z M 232.757812 359.125 "/></g><g clip-rule="nonzero" clip-path="url(#1026b0a746)"><g clip-rule="nonzero" clip-path="url(#5206185d20)"><path style=" stroke:none;fill-rule:nonzero;fill:#ffffff;fill-opacity:1;" d="M 331.023438 371.707031 L 272.523438 315.886719 L 280.90625 307.101562 L 339.40625 362.925781 Z M 331.023438 371.707031 "/></g></g><g clip-rule="nonzero" clip-path="url(#6ee7a2a735)"><g clip-rule="nonzero" clip-path="url(#f4d8505125)"><path style=" stroke:none;fill-rule:nonzero;fill:#2465a2;fill-opacity:1;" d="M 243.058594 292.527344 L 255.347656 280.238281 L 282.132812 307.023438 L 269.84375 319.3125 Z M 243.058594 292.527344 "/></g></g></g></svg>